<svg width="32" height="32" viewBox="0 0 32 32" fill="none" xmlns="http://www.w3.org/2000/svg">
<path d="M29.7686 8.81759L23.1824 2.23259C22.9502 2.00034 22.6746 1.8161 22.3712 1.6904C22.0678 1.5647 21.7426 1.5 21.4143 1.5C21.0859 1.5 20.7607 1.5647 20.4573 1.6904C20.1539 1.8161 19.8783 2.00034 19.6461 2.23259L2.23113 19.6463C1.99887 19.8785 1.81463 20.1541 1.68893 20.4575C1.56323 20.7609 1.49854 21.0861 1.49854 21.4145C1.49854 21.7429 1.56323 22.068 1.68893 22.3714C1.81463 22.6748 1.99887 22.9504 2.23113 23.1826L8.81738 29.7676C9.04954 29.9998 9.32518 30.1841 9.62856 30.3098C9.93194 30.4355 10.2571 30.5002 10.5855 30.5002C10.9139 30.5002 11.2391 30.4355 11.5424 30.3098C11.8458 30.1841 12.1215 29.9998 12.3536 29.7676L29.7686 12.3538C30.0009 12.1217 30.1851 11.846 30.3108 11.5427C30.4365 11.2393 30.5012 10.9141 30.5012 10.5857C30.5012 10.2573 30.4365 9.93215 30.3108 9.62877C30.1851 9.32539 30.0009 9.04975 29.7686 8.81759ZM10.5849 27.2926L4.70988 21.4176L7.99988 18.1251L10.9399 21.0651C11.2217 21.3469 11.6039 21.5052 12.0024 21.5052C12.4009 21.5052 12.7831 21.3469 13.0649 21.0651C13.3467 20.7833 13.505 20.4011 13.505 20.0026C13.505 19.6041 13.3467 19.2219 13.0649 18.9401L10.1249 16.0001L11.9999 14.1251L14.9386 17.0651C15.2204 17.3469 15.6026 17.5052 16.0011 17.5052C16.3996 17.5052 16.7818 17.3469 17.0636 17.0651C17.3454 16.7833 17.5037 16.4011 17.5037 16.0026C17.5037 15.6041 17.3454 15.2219 17.0636 14.9401L14.1249 12.0001L15.9999 10.1251L18.9399 13.0651C19.2217 13.3469 19.6039 13.5052 20.0024 13.5052C20.4009 13.5052 20.7831 13.3469 21.0649 13.0651C21.3467 12.7833 21.505 12.4011 21.505 12.0026C21.505 11.6041 21.3467 11.2219 21.0649 10.9401L18.1249 8.00009L21.4186 4.70759L27.2936 10.5826L10.5849 27.2926Z" fill="#213547"/>
</svg>
